<svg width="24" height="25" viewBox="0 0 24 25" fill="none" xmlns="http://www.w3.org/2000/svg">
<g clip-path="url(#clip0_306_142)">
<path d="M9.75 9.04004C9.55109 9.04004 9.36032 9.11906 9.21967 9.25971C9.07902 9.40036 9 9.59113 9 9.79004V14.29C9 14.489 9.07902 14.6797 9.21967 14.8204C9.36032 14.961 9.55109 15.04 9.75 15.04H14.25C14.4489 15.04 14.6397 14.961 14.7803 14.8204C14.921 14.6797 15 14.489 15 14.29V9.79004C15 9.59113 14.921 9.40036 14.7803 9.25971C14.6397 9.11906 14.4489 9.04004 14.25 9.04004H9.75Z" fill="#0CBA29"/>
<path d="M8.25 0.790039C8.25 0.591127 8.17098 0.400361 8.03033 0.259709C7.88968 0.119057 7.69891 0.0400391 7.5 0.0400391C7.30109 0.0400391 7.11032 0.119057 6.96967 0.259709C6.82902 0.400361 6.75 0.591127 6.75 0.790039V3.04004C5.75544 3.04004 4.80161 3.43513 4.09835 4.13839C3.39509 4.84165 3 5.79548 3 6.79004H0.75C0.551088 6.79004 0.360322 6.86906 0.21967 7.00971C0.0790176 7.15036 0 7.34113 0 7.54004C0 7.73895 0.0790176 7.92972 0.21967 8.07037C0.360322 8.21102 0.551088 8.29004 0.75 8.29004H3V9.79004H0.75C0.551088 9.79004 0.360322 9.86906 0.21967 10.0097C0.0790176 10.1504 0 10.3411 0 10.54C0 10.739 0.0790176 10.9297 0.21967 11.0704C0.360322 11.211 0.551088 11.29 0.75 11.29H3V12.79H0.75C0.551088 12.79 0.360322 12.8691 0.21967 13.0097C0.0790176 13.1504 0 13.3411 0 13.54C0 13.739 0.0790176 13.9297 0.21967 14.0704C0.360322 14.211 0.551088 14.29 0.75 14.29H3V15.79H0.75C0.551088 15.79 0.360322 15.8691 0.21967 16.0097C0.0790176 16.1504 0 16.3411 0 16.54C0 16.739 0.0790176 16.9297 0.21967 17.0704C0.360322 17.211 0.551088 17.29 0.75 17.29H3C3 18.2846 3.39509 19.2384 4.09835 19.9417C4.80161 20.645 5.75544 21.04 6.75 21.04V23.29C6.75 23.489 6.82902 23.6797 6.96967 23.8204C7.11032 23.961 7.30109 24.04 7.5 24.04C7.69891 24.04 7.88968 23.961 8.03033 23.8204C8.17098 23.6797 8.25 23.489 8.25 23.29V21.04H9.75V23.29C9.75 23.489 9.82902 23.6797 9.96967 23.8204C10.1103 23.961 10.3011 24.04 10.5 24.04C10.6989 24.04 10.8897 23.961 11.0303 23.8204C11.171 23.6797 11.25 23.489 11.25 23.29V21.04H12.75V23.29C12.75 23.489 12.829 23.6797 12.9697 23.8204C13.1103 23.961 13.3011 24.04 13.5 24.04C13.6989 24.04 13.8897 23.961 14.0303 23.8204C14.171 23.6797 14.25 23.489 14.25 23.29V21.04H15.75V23.29C15.75 23.489 15.829 23.6797 15.9697 23.8204C16.1103 23.961 16.3011 24.04 16.5 24.04C16.6989 24.04 16.8897 23.961 17.0303 23.8204C17.171 23.6797 17.25 23.489 17.25 23.29V21.04C18.2446 21.04 19.1984 20.645 19.9016 19.9417C20.6049 19.2384 21 18.2846 21 17.29H23.25C23.4489 17.29 23.6397 17.211 23.7803 17.0704C23.921 16.9297 24 16.739 24 16.54C24 16.3411 23.921 16.1504 23.7803 16.0097C23.6397 15.8691 23.4489 15.79 23.25 15.79H21V14.29H23.25C23.4489 14.29 23.6397 14.211 23.7803 14.0704C23.921 13.9297 24 13.739 24 13.54C24 13.3411 23.921 13.1504 23.7803 13.0097C23.6397 12.8691 23.4489 12.79 23.25 12.79H21V11.29H23.25C23.4489 11.29 23.6397 11.211 23.7803 11.0704C23.921 10.9297 24 10.739 24 10.54C24 10.3411 23.921 10.1504 23.7803 10.0097C23.6397 9.86906 23.4489 9.79004 23.25 9.79004H21V8.29004H23.25C23.4489 8.29004 23.6397 8.21102 23.7803 8.07037C23.921 7.92972 24 7.73895 24 7.54004C24 7.34113 23.921 7.15036 23.7803 7.00971C23.6397 6.86906 23.4489 6.79004 23.25 6.79004H21C21 5.79548 20.6049 4.84165 19.9016 4.13839C19.1984 3.43513 18.2446 3.04004 17.25 3.04004V0.790039C17.25 0.591127 17.171 0.400361 17.0303 0.259709C16.8897 0.119057 16.6989 0.0400391 16.5 0.0400391C16.3011 0.0400391 16.1103 0.119057 15.9697 0.259709C15.829 0.400361 15.75 0.591127 15.75 0.790039V3.04004H14.25V0.790039C14.25 0.591127 14.171 0.400361 14.0303 0.259709C13.8897 0.119057 13.6989 0.0400391 13.5 0.0400391C13.3011 0.0400391 13.1103 0.119057 12.9697 0.259709C12.829 0.400361 12.75 0.591127 12.75 0.790039V3.04004H11.25V0.790039C11.25 0.591127 11.171 0.400361 11.0303 0.259709C10.8897 0.119057 10.6989 0.0400391 10.5 0.0400391C10.3011 0.0400391 10.1103 0.119057 9.96967 0.259709C9.82902 0.400361 9.75 0.591127 9.75 0.790039V3.04004H8.25V0.790039ZM9.75 7.54004H14.25C14.8467 7.54004 15.419 7.77709 15.841 8.19905C16.2629 8.62101 16.5 9.1933 16.5 9.79004V14.29C16.5 14.8868 16.2629 15.4591 15.841 15.881C15.419 16.303 14.8467 16.54 14.25 16.54H9.75C9.15326 16.54 8.58097 16.303 8.15901 15.881C7.73705 15.4591 7.5 14.8868 7.5 14.29V9.79004C7.5 9.1933 7.73705 8.62101 8.15901 8.19905C8.58097 7.77709 9.15326 7.54004 9.75 7.54004Z" fill="#0CBA29"/>
</g>
<defs>
<clipPath id="clip0_306_142">
<rect width="24" height="24" fill="white" transform="translate(0 0.0400391)"/>
</clipPath>
</defs>
</svg>
