<svg width="23" height="23" viewBox="0 0 23 23" fill="none" xmlns="http://www.w3.org/2000/svg">
<path d="M3.83333 0C2.81667 0 1.84165 0.302901 1.12276 0.842068C0.403868 1.38124 0 2.1125 0 2.875V20.125C0 20.8875 0.403868 21.6188 1.12276 22.1579C1.84165 22.6971 2.81667 23 3.83333 23H19.1667C20.1833 23 21.1584 22.6971 21.8772 22.1579C22.5961 21.6188 23 20.8875 23 20.125V2.875C23 2.1125 22.5961 1.38124 21.8772 0.842068C21.1584 0.302901 20.1833 0 19.1667 0L3.83333 0ZM3.83333 2.15625C3.83333 2.34687 3.73237 2.52969 3.55264 2.66448C3.37292 2.79927 3.12917 2.875 2.875 2.875C2.62083 2.875 2.37708 2.79927 2.19736 2.66448C2.01763 2.52969 1.91667 2.34687 1.91667 2.15625C1.91667 1.96563 2.01763 1.78281 2.19736 1.64802C2.37708 1.51323 2.62083 1.4375 2.875 1.4375C3.12917 1.4375 3.37292 1.51323 3.55264 1.64802C3.73237 1.78281 3.83333 1.96563 3.83333 2.15625ZM21.0833 2.15625C21.0833 2.34687 20.9824 2.52969 20.8026 2.66448C20.6229 2.79927 20.3792 2.875 20.125 2.875C19.8708 2.875 19.6271 2.79927 19.4474 2.66448C19.2676 2.52969 19.1667 2.34687 19.1667 2.15625C19.1667 1.96563 19.2676 1.78281 19.4474 1.64802C19.6271 1.51323 19.8708 1.4375 20.125 1.4375C20.3792 1.4375 20.6229 1.51323 20.8026 1.64802C20.9824 1.78281 21.0833 1.96563 21.0833 2.15625ZM2.875 15.8125C3.12917 15.8125 3.37292 15.7368 3.55264 15.602C3.73237 15.4672 3.83333 15.2844 3.83333 15.0938C3.83333 14.9031 3.73237 14.7203 3.55264 14.5855C3.37292 14.4507 3.12917 14.375 2.875 14.375C2.62083 14.375 2.37708 14.4507 2.19736 14.5855C2.01763 14.7203 1.91667 14.9031 1.91667 15.0938C1.91667 15.2844 2.01763 15.4672 2.19736 15.602C2.37708 15.7368 2.62083 15.8125 2.875 15.8125ZM21.0833 15.0938C21.0833 15.2844 20.9824 15.4672 20.8026 15.602C20.6229 15.7368 20.3792 15.8125 20.125 15.8125C19.8708 15.8125 19.6271 15.7368 19.4474 15.602C19.2676 15.4672 19.1667 15.2844 19.1667 15.0938C19.1667 14.9031 19.2676 14.7203 19.4474 14.5855C19.6271 14.4507 19.8708 14.375 20.125 14.375C20.3792 14.375 20.6229 14.4507 20.8026 14.5855C20.9824 14.7203 21.0833 14.9031 21.0833 15.0938ZM5.27083 4.3125H17.7292C18.1104 4.3125 18.476 4.42609 18.7456 4.62828C19.0152 4.83046 19.1667 5.10469 19.1667 5.39062V11.8594C19.1667 12.1453 19.0152 12.4195 18.7456 12.6217C18.476 12.8239 18.1104 12.9375 17.7292 12.9375H5.27083C4.88958 12.9375 4.52395 12.8239 4.25437 12.6217C3.98478 12.4195 3.83333 12.1453 3.83333 11.8594V5.39062C3.83333 5.10469 3.98478 4.83046 4.25437 4.62828C4.52395 4.42609 4.88958 4.3125 5.27083 4.3125ZM5.75 17.25H17.25C17.7583 17.25 18.2458 17.4015 18.6053 17.671C18.9647 17.9406 19.1667 18.3063 19.1667 18.6875V21.5625H17.25V18.6875H15.8125V21.5625H13.8958V18.6875H12.4583V21.5625H10.5417V18.6875H9.10417V21.5625H7.1875V18.6875H5.75V21.5625H3.83333V18.6875C3.83333 18.3063 4.03527 17.9406 4.39471 17.671C4.75416 17.4015 5.24167 17.25 5.75 17.25Z" fill="#10A429"/>
</svg>
